<svg xmlns="http://www.w3.org/2000/svg" width="70" height="70" viewBox="0 0 70 70"><defs><mask id="egahb" width="2" height="2" x="-1" y="-1"><path fill="#fff" d="M10 4h50v50H10z"/><path d="M10 9a5 5 0 0 1 5-5h40a5 5 0 0 1 5 5v40a5 5 0 0 1-5 5H15a5 5 0 0 1-5-5z"/></mask><filter id="egaha" width="94" height="100" x="-12" y="-18" filterUnits="userSpaceOnUse"><feOffset dy="6" in="SourceGraphic" result="FeOffset1048Out"/><feGaussianBlur in="FeOffset1048Out" result="FeGaussianBlur1049Out" stdDeviation="4.8 4.8"/></filter></defs><g><g><g filter="url(#egaha)"><path fill="none" d="M10 9a5 5 0 0 1 5-5h40a5 5 0 0 1 5 5v40a5 5 0 0 1-5 5H15a5 5 0 0 1-5-5z" mask="url(&quot;#egahb&quot;)"/><path fill="#4044df" fill-opacity=".36" d="M10 9a5 5 0 0 1 5-5h40a5 5 0 0 1 5 5v40a5 5 0 0 1-5 5H15a5 5 0 0 1-5-5z"/></g><path fill="#4044df" d="M10 9a5 5 0 0 1 5-5h40a5 5 0 0 1 5 5v40a5 5 0 0 1-5 5H15a5 5 0 0 1-5-5z"/></g><g><path fill="#fff" d="M35.004 32.504a1 1 0 0 1-.71-.29l-4-4a1.004 1.004 0 0 1 1.42-1.42l3.29 3.31 3.3-3.18a1 1 0 1 1 1.38 1.44l-4 3.86a1 1 0 0 1-.68.28z"/></g></g></svg>