<svg xmlns="http://www.w3.org/2000/svg" width="27" height="26" viewBox="0 0 27 26"><g><g><path fill="#0077b5" d="M13.538 25.819c7.476 0 13.538-5.729 13.538-12.795S21.014.23 13.538.23C6.06.23 0 5.958 0 13.024 0 20.09 6.061 25.82 13.538 25.82z"/></g><g><path fill="#fff" d="M6.722 19.322H9.96v-9.195H6.722zM6.53 7.275c0 .881.702 1.586 1.785 1.586h.02c1.127 0 1.828-.705 1.828-1.586-.022-.9-.7-1.585-1.806-1.585-1.104 0-1.827.685-1.827 1.585zm15.084 6.774c0-2.824-1.594-4.138-3.72-4.138-1.717 0-2.483.894-2.912 1.519v.03h-.022c.006-.01.015-.02.022-.03v-1.303H11.75c.043.862 0 9.195 0 9.195h3.232v-5.136c0-.275.022-.548.107-.745.234-.55.764-1.118 1.657-1.118 1.17 0 1.637.844 1.637 2.08v4.919h3.231z"/></g></g></svg>