<svg xmlns="http://www.w3.org/2000/svg" width="30" height="30" viewBox="0 0 30 30"><g><g><path fill="none" stroke="#4044df" stroke-linecap="round" stroke-linejoin="round" stroke-miterlimit="50" stroke-width="2.67" d="M28.668 21.893v4a2.667 2.667 0 0 1-2.907 2.667 26.387 26.387 0 0 1-11.507-4.093 26 26 0 0 1-8-8 26.387 26.387 0 0 1-4.093-11.56A2.667 2.667 0 0 1 4.814 2h4a2.667 2.667 0 0 1 2.667 2.293 17.12 17.12 0 0 0 .933 3.747 2.667 2.667 0 0 1-.6 2.813l-1.693 1.694a21.333 21.333 0 0 0 8 8l1.693-1.694a2.667 2.667 0 0 1 2.813-.6 17.12 17.12 0 0 0 3.747.934 2.667 2.667 0 0 1 2.294 2.706z"/></g></g></svg>