<svg xmlns="http://www.w3.org/2000/svg" width="27" height="26" viewBox="0 0 27 26"><g><g><path fill="#1da1f2" d="M13.538 25.815c7.476 0 13.538-5.779 13.538-12.908C27.076 5.78 21.014 0 13.538 0 6.06 0 0 5.779 0 12.908c0 7.128 6.061 12.907 13.538 12.907z"/></g><g><path fill="#fff" d="M21.832 9.277a6.704 6.704 0 0 1-1.858.485 3.125 3.125 0 0 0 1.423-1.707 6.673 6.673 0 0 1-2.055.749 3.308 3.308 0 0 0-2.363-.974c-1.786 0-3.236 1.382-3.236 3.085 0 .242.03.477.085.703-2.69-.128-5.074-1.356-6.67-3.224a2.963 2.963 0 0 0-.438 1.552c0 1.07.571 2.015 1.439 2.568a3.333 3.333 0 0 1-1.466-.387v.04c0 1.494 1.116 2.741 2.596 3.024a3.372 3.372 0 0 1-1.461.054c.412 1.225 1.606 2.117 3.023 2.142a6.697 6.697 0 0 1-4.02 1.321 6.83 6.83 0 0 1-.771-.043 9.48 9.48 0 0 0 4.96 1.386c5.952 0 9.207-4.701 9.207-8.778a8.42 8.42 0 0 0-.01-.4 6.402 6.402 0 0 0 1.615-1.596z"/></g></g></svg>